<svg width="24" height="24" viewBox="0 0 24 24" fill="none" xmlns="http://www.w3.org/2000/svg">
<path fill-rule="evenodd" clip-rule="evenodd" d="M12 1.25391C5.9247 1.25391 1 6.18631 1 12.2726C1 17.1401 4.1515 21.2706 8.5229 22.727C9.0729 22.8282 9.2731 22.4883 9.2731 22.1957C9.2731 21.935 9.2643 21.2409 9.2588 20.3224C6.1986 20.9879 5.5529 18.8451 5.5529 18.8451C5.0535 17.5713 4.3319 17.2325 4.3319 17.2325C3.3331 16.5505 4.4078 16.5637 4.4078 16.5637C5.5111 16.6407 6.0919 17.6989 6.0919 17.6989C7.0731 19.3819 8.667 18.8957 9.2929 18.6141C9.3941 17.9024 9.6779 17.4173 9.9925 17.1423C7.5505 16.864 4.982 15.918 4.982 11.6962C4.982 10.4939 5.411 9.50941 6.1139 8.73941C6.0006 8.46111 5.6233 7.34021 6.2217 5.82441C6.2217 5.82441 7.1457 5.52741 9.2467 6.95301C10.144 6.70827 11.0699 6.58362 12 6.58231C12.935 6.58671 13.8755 6.70881 14.7544 6.95301C16.8543 5.52741 17.7761 5.82331 17.7761 5.82331C18.3767 7.34021 17.9983 8.46111 17.8861 8.73941C18.5901 9.50941 19.0169 10.4939 19.0169 11.6962C19.0169 15.929 16.444 16.8607 13.9943 17.1335C14.3892 17.4734 14.7401 18.1455 14.7401 19.174C14.7401 20.6458 14.7269 21.8349 14.7269 22.1957C14.7269 22.4905 14.9249 22.8337 15.4837 22.7259C17.6741 21.9912 19.5783 20.5867 20.927 18.711C22.2758 16.8352 23.0009 14.583 23 12.2726C23 6.18631 18.0742 1.25391 12 1.25391Z" fill="black"/>
</svg>
