<svg width="24" height="24" viewBox="0 0 24 24" fill="none" xmlns="http://www.w3.org/2000/svg">
<path fill-rule="evenodd" clip-rule="evenodd" d="M20.5949 4.7598C21.5421 5.01334 22.2865 5.75766 22.54 6.70481C22.9982 8.41982 23 12.0002 23 12.0002C23 12.0002 23 15.5805 22.54 17.2955C22.2865 18.2427 21.5421 18.987 20.5949 19.2405C18.88 19.7005 12 19.7005 12 19.7005C12 19.7005 5.12001 19.7005 3.405 19.2405C2.45785 18.987 1.71353 18.2427 1.45999 17.2955C1 15.5805 1 12.0002 1 12.0002C1 12.0002 1 8.41982 1.45999 6.70481C1.71353 5.75766 2.45785 5.01334 3.405 4.7598C5.12001 4.2998 12 4.2998 12 4.2998C12 4.2998 18.88 4.2998 20.5949 4.7598ZM15.5134 12.0005L9.79788 15.3001V8.70081L15.5134 12.0005Z" fill="black"/>
</svg>
